HIERARCHY
ROOT Hips
{
  OFFSET 5.84602e-005 68.8428 3.50346
  CHANNELS 6 Xposition Yposition Zposition Zrotation Xrotation Yrotation
  JOINT Spine
  {
    OFFSET 0 8.597 -4.6522
    CHANNELS 3 Zrotation Xrotation Yrotation
    JOINT Spine1
    {
      OFFSET 0 7.8454 0.4098
      CHANNELS 3 Zrotation Xrotation Yrotation
      JOINT Spine2
      {
        OFFSET 0 9.7078 -2.1609
        CHANNELS 3 Zrotation Xrotation Yrotation
        JOINT Neck
        {
          OFFSET 0 21.8761 -0.4549
          CHANNELS 3 Zrotation Xrotation Yrotation
          JOINT Head
          {
            OFFSET 0 12.3537 3.3602
            CHANNELS 3 Zrotation Xrotation Yrotation
            End Site
            {
              OFFSET 0.0001 18.9506 0.5657
            }
          }
        }
        JOINT LeftShoulder
        {
          OFFSET 2.2086 21.1115 7.2329
          CHANNELS 3 Zrotation Xrotation Yrotation
          JOINT LeftArm
          {
            OFFSET 13.1193 3.0282 -4.8998
            CHANNELS 3 Zrotation Xrotation Yrotation
            JOINT LeftForeArm
            {
              OFFSET 27.4081 -0.0973053 -0.2375
              CHANNELS 3 Zrotation Xrotation Yrotation
              JOINT LeftHand
              {
                OFFSET 22.8641 0.0662994 -0.1369
                CHANNELS 3 Zrotation Xrotation Yrotation
                JOINT LeftHandIndex1
                {
                  OFFSET 8.8614 0.775009 2.4612
                  CHANNELS 3 Zrotation Xrotation Yrotation
                  JOINT LeftHandIndex2
                  {
                    OFFSET 3.3146 -0.808304 0.5841
                    CHANNELS 3 Zrotation Xrotation Yrotation
                    JOINT LeftHandIndex3
                    {
                      OFFSET 2.2628 -0.552002 0.3989
                      CHANNELS 3 Zrotation Xrotation Yrotation
                      End Site
                      {
                        OFFSET 1.6102 -0.4807 0.2612
                      }
                    }
                  }
                }
                JOINT LeftHandMiddle1
                {
                  OFFSET 8.9937 0.895004 0.2143
                  CHANNELS 3 Zrotation Xrotation Yrotation
                  JOINT LeftHandMiddle2
                  {
                    OFFSET 4.0984 0.0113983 -0.0242
                    CHANNELS 3 Zrotation Xrotation Yrotation
                    JOINT LeftHandMiddle3
                    {
                      OFFSET 2.2716 0.00689697 -0.0138001
                      CHANNELS 3 Zrotation Xrotation Yrotation
                      End Site
                      {
                        OFFSET 2.0404 -0.1441 0.0027
                      }
                    }
                  }
                }
                JOINT LeftHandRing1
                {
                  OFFSET 8.5234 0.597198 -2.0164
                  CHANNELS 3 Zrotation Xrotation Yrotation
                  JOINT LeftHandRing2
                  {
                    OFFSET 3.7188 -0.188293 -0.2328
                    CHANNELS 3 Zrotation Xrotation Yrotation
                    JOINT LeftHandRing3
                    {
                      OFFSET 2.1191 -0.106598 -0.1332
                      CHANNELS 3 Zrotation Xrotation Yrotation
                      End Site
                      {
                        OFFSET 1.8737 -0.2304 -0.0886
                      }
                    }
                  }
                }
                JOINT LeftHandPinky1
                {
                  OFFSET 7.9094 -0.601089 -3.4825
                  CHANNELS 3 Zrotation Xrotation Yrotation
                  JOINT LeftHandPinky2
                  {
                    OFFSET 2.2874 -0.477005 -0.6314
                    CHANNELS 3 Zrotation Xrotation Yrotation
                    JOINT LeftHandPinky3
                    {
                      OFFSET 1.6774 -0.349396 -0.4633
                      CHANNELS 3 Zrotation Xrotation Yrotation
                      End Site
                      {
                        OFFSET 1.4888 -0.4091 -0.3416
                      }
                    }
                  }
                }
                JOINT LeftHandThumb1
                {
                  OFFSET 1.833 -1.3875 1.3896
                  CHANNELS 3 Zrotation Xrotation Yrotation
                  JOINT LeftHandThumb2
                  {
                    OFFSET 3.4129 -1.121 2.5732
                    CHANNELS 3 Zrotation Xrotation Yrotation
                    JOINT LeftHandThumb3
                    {
                      OFFSET 2.2474 -0.804199 1.6192
                      CHANNELS 3 Zrotation Xrotation Yrotation
                      End Site
                      {
                        OFFSET 1.6527 -0.5689 1.1317
                      }
                    }
                  }
                }
              }
            }
          }
        }
        JOINT RightShoulder
        {
          OFFSET -2.2086 21.1115 7.2329
          CHANNELS 3 Zrotation Xrotation Yrotation
          JOINT RightArm
          {
            OFFSET -13.1216 3.0287 -4.9007
            CHANNELS 3 Zrotation Xrotation Yrotation
            JOINT RightForeArm
            {
              OFFSET -27.4081 -0.0973053 -0.2375
              CHANNELS 3 Zrotation Xrotation Yrotation
              JOINT RightHand
              {
                OFFSET -22.8641 0.0664063 -0.1369
                CHANNELS 3 Zrotation Xrotation Yrotation
                JOINT RightHandIndex1
                {
                  OFFSET -8.8614 0.774994 2.4612
                  CHANNELS 3 Zrotation Xrotation Yrotation
                  JOINT RightHandIndex2
                  {
                    OFFSET -3.3146 -0.808304 0.5841
                    CHANNELS 3 Zrotation Xrotation Yrotation
                    JOINT RightHandIndex3
                    {
                      OFFSET -2.2628 -0.552002 0.3989
                      CHANNELS 3 Zrotation Xrotation Yrotation
                      End Site
                      {
                        OFFSET -1.6102 -0.4807 0.2612
                      }
                    }
                  }
                }
                JOINT RightHandMiddle1
                {
                  OFFSET -8.9937 0.894989 0.2143
                  CHANNELS 3 Zrotation Xrotation Yrotation
                  JOINT RightHandMiddle2
                  {
                    OFFSET -4.0984 0.0113983 -0.0242
                    CHANNELS 3 Zrotation Xrotation Yrotation
                    JOINT RightHandMiddle3
                    {
                      OFFSET -2.2716 0.00691223 -0.0138001
                      CHANNELS 3 Zrotation Xrotation Yrotation
                      End Site
                      {
                        OFFSET -2.0404 -0.1441 0.0027
                      }
                    }
                  }
                }
                JOINT RightHandRing1
                {
                  OFFSET -8.5234 0.597198 -2.0164
                  CHANNELS 3 Zrotation Xrotation Yrotation
                  JOINT RightHandRing2
                  {
                    OFFSET -3.7188 -0.188309 -0.2328
                    CHANNELS 3 Zrotation Xrotation Yrotation
                    JOINT RightHandRing3
                    {
                      OFFSET -2.1191 -0.106598 -0.1332
                      CHANNELS 3 Zrotation Xrotation Yrotation
                      End Site
                      {
                        OFFSET -1.8737 -0.2304 -0.0886
                      }
                    }
                  }
                }
                JOINT RightHandPinky1
                {
                  OFFSET -7.9094 -0.601105 -3.4825
                  CHANNELS 3 Zrotation Xrotation Yrotation
                  JOINT RightHandPinky2
                  {
                    OFFSET -2.2874 -0.477005 -0.6314
                    CHANNELS 3 Zrotation Xrotation Yrotation
                    JOINT RightHandPinky3
                    {
                      OFFSET -1.6774 -0.349396 -0.4633
                      CHANNELS 3 Zrotation Xrotation Yrotation
                      End Site
                      {
                        OFFSET -1.4888 -0.4091 -0.3416
                      }
                    }
                  }
                }
                JOINT RightHandThumb1
                {
                  OFFSET -1.833 -1.38751 1.3896
                  CHANNELS 3 Zrotation Xrotation Yrotation
                  JOINT RightHandThumb2
                  {
                    OFFSET -3.41299 -1.12099 2.5732
                    CHANNELS 3 Zrotation Xrotation Yrotation
                    JOINT RightHandThumb3
                    {
                      OFFSET -2.24741 -0.804108 1.6192
                      CHANNELS 3 Zrotation Xrotation Yrotation
                      End Site
                      {
                        OFFSET -1.6527 -0.5689 1.1317
                      }
                    }
                  }
                }
              }
            }
          }
        }
      }
    }
  }
  JOINT RightUpLeg
  {
    OFFSET -9.1966 3.8861 -0.7581
    CHANNELS 3 Zrotation Xrotation Yrotation
    JOINT RightLeg
    {
      OFFSET -0.7359 -41.0265 0
      CHANNELS 3 Zrotation Xrotation Yrotation
      JOINT RightFoot
      {
        OFFSET 0 -40.2855 0
        CHANNELS 3 Zrotation Xrotation Yrotation
        JOINT RightToeBase
        {
          OFFSET 0 -5.6122 11.7359
          CHANNELS 3 Zrotation Xrotation Yrotation
          End Site
          {
            OFFSET 0 0 7.8731
          }
        }
      }
    }
  }
  JOINT LeftUpLeg
  {
    OFFSET 9.1965 3.8864 -0.7581
    CHANNELS 3 Zrotation Xrotation Yrotation
    JOINT LeftLeg
    {
      OFFSET 0.7359 -41.0268 0
      CHANNELS 3 Zrotation Xrotation Yrotation
      JOINT LeftFoot
      {
        OFFSET 0 -40.2855 0
        CHANNELS 3 Zrotation Xrotation Yrotation
        JOINT LeftToeBase
        {
          OFFSET 0 -5.6122 11.7359
          CHANNELS 3 Zrotation Xrotation Yrotation
          End Site
          {
            OFFSET 0 0 7.8731
          }
        }
      }
    }
  }
}
MOTION
Frames:	4
Frame Time:	0.0333333
5.84602e-005 68.8428 3.50346 0 0 -0 0 0 -0 0 0 -0 0 0 -0 0 0 -0 0 0 -0 0 0 -0 0 0 -0 0 0 -0 0 0 -0 0 0 -0 0 0 -0 0 0 -0 0 0 -0 -0.0146107 -8.87603e-005 -2.63497e-007 2.99804e-018 -2.42657e-020 -1.42182e-022 0 0 -0 -0.0187562 -0.001176 5.858e-005 5.06224e-018 3.88251e-019 1.21329e-020 0 0 -0 -0.012269 -0.00324817 0.000675346 -1.74678e-018 3.88251e-019 -0 0 0 -0 0 0 -0 0 0 -0 0 0 -0 0 0 -0 0 0 -0 0 0 -0 0 0 -0 0 0 -0 0 0 -0 0 0 -0 0.0149955 -9.10982e-005 2.64101e-007 -9.69331e-018 1.21329e-020 -4.7394e-023 0 0 -0 0.0189956 -0.00119102 -5.96516e-005 -5.41541e-019 0 2.42657e-020 0 0 -0 0.0122698 -0.00324857 -0.000673756 -2.00796e-019 0 -1.94126e-019 0 0 -0 0 0 -0 0 0 -0 3.39842 1.33031 -0.0637918 -5.65207e-008 0.834868 -0.000436188 -3.39935 -2.16518 -0.0642563 -8.89002e-024 -1.18485e-023 -1.48106e-024 -3.39844 1.35642 0.0640283 -3.18788e-007 0.782166 -0.000588827 3.39931 -2.13858 0.0634662 1.1399e-023 0 -0 
39.8777 2.58076 6.40624 -180 -89.9981 -180 -0.0789669 7.72076 -0.142768 -0.14025 15.4417 -0.278534 -0.14025 15.4417 -0.278534 -9.42959e-006 18.9982 4.74112e-006 6.09883e-008 5.99852 -2.09243e-007 -0.877496 3.44006 12.1284 -76.2471 1.04848 30.1187 33.1196 8.0272 -77.1833 -8.57442 26.3803 -0.362163 -1.98785e-016 -3.52843e-015 -0 -2.20894e-006 1.34755e-007 1.44656e-006 7.95139e-016 -6.11263e-015 7.95139e-015 -1.98785e-016 -3.52843e-015 -0 -0.0146632 -8.83985e-005 -1.21061e-005 1.27705e-006 -1.31555e-006 5.91815e-006 -1.98785e-016 -3.52843e-015 -0 -0.0188002 -0.00117842 6.29707e-005 -7.95139e-016 -6.4605e-016 -1.59028e-015 -1.98785e-016 -3.52843e-015 -0 -0.0122659 -0.00324977 0.000683091 5.96354e-016 -7.50412e-015 -4.77083e-015 -1.98785e-016 -3.52843e-015 -0 -2.20894e-006 1.34755e-007 1.44656e-006 7.95139e-016 -6.11263e-015 7.95139e-015 5.99937 -0.408869 8.43185 54.1948 28.3932 25.2131 42.2928 -1.76329 54.1839 -25.2408 -0.270092 -12.2447 -6.36111e-015 -7.95139e-016 -0 3.18055e-015 -1.59028e-015 -0 -6.36111e-015 -1.98785e-015 1.59028e-015 -6.36111e-015 -7.95139e-016 -0 0.0149847 -9.79679e-005 4.37014e-007 -3.18055e-015 -2.78299e-015 -0 -6.36111e-015 -7.95139e-016 -0 0.0190088 -0.00119448 -5.91561e-005 3.18055e-015 -2.62396e-014 9.54166e-015 -6.36111e-015 -7.95139e-016 -0 0.0123419 -0.00326599 -0.000680265 -3.97252e-031 -4.77083e-015 -4.77083e-015 -6.36111e-015 -7.95139e-016 -0 3.18055e-015 -1.59028e-015 -0 -6.36111e-015 -1.98785e-015 1.59028e-015 -25.5306 -41.7019 11.7975 174.353 74.1389 -177.98 -12.356 38.8236 42.2668 4.73983e-007 1.81541e-008 -2.4385e-007 8.17095 4.50816 -25.425 -5.63414 4.31782 0.178549 14.4036 -5.94197 4.73516 1.52944e-006 -1.51932e-007 -3.20216e-006 
39.8779 2.58074 6.40625 -180 -89.9981 -180 -0.0751097 7.90391 -0.143591 -0.131908 15.808 -0.280675 -0.131908 15.808 -0.280675 -9.2347e-006 19.8542 5.99501e-006 -3.67004e-008 6.56949 -8.59189e-008 -1.36092 3.16887 11.9184 -75.8776 1.20242 30.0328 33.1398 7.9447 -76.9744 -7.7968 26.0684 -0.937642 -5.96354e-016 -4.07509e-015 1.59028e-015 1.98785e-016 -4.12478e-015 3.18055e-015 5.96354e-016 -7.35503e-015 -1.59028e-015 -5.96354e-016 -4.07509e-015 1.59028e-015 -0.0145986 -8.84511e-005 -1.77863e-006 5.96354e-016 -4.52235e-015 -0 -5.96354e-016 -4.07509e-015 1.59028e-015 -0.0186966 -0.00117325 5.71306e-005 -7.95139e-016 -3.57812e-015 3.18055e-015 -5.96354e-016 -4.07509e-015 1.59028e-015 -0.0122642 -0.00324848 0.000684165 1.98785e-016 1.88845e-015 -4.77083e-015 -5.96354e-016 -4.07509e-015 1.59028e-015 1.98785e-016 -4.12478e-015 3.18055e-015 5.96354e-016 -7.35503e-015 -1.59028e-015 5.60416 -0.972553 8.22795 54.4492 28.5358 25.0995 42.2406 -1.29525 55.143 -25.6153 0.0128798 -11.986 -5.3341e-006 2.13799e-006 6.64615e-007 6.36111e-015 -3.18055e-015 -0 -2.06989e-006 -1.62432e-006 -1.09966e-006 -5.3341e-006 2.13799e-006 6.64615e-007 0.0149951 -9.40176e-005 2.54106e-006 -6.36111e-015 -1.19271e-015 -0 -5.3341e-006 2.13799e-006 6.64615e-007 0.0189986 -0.0011915 -6.32809e-005 -5.51738e-032 -1.98785e-015 -1.59028e-015 -5.3341e-006 2.13799e-006 6.64615e-007 0.0122904 -0.00325589 -0.000680816 -2.07134e-006 -1.62407e-006 -1.09935e-006 -5.3341e-006 2.13799e-006 6.64615e-007 6.36111e-015 -3.18055e-015 -0 -2.06989e-006 -1.62432e-006 -1.09966e-006 -26.6304 -41.856 10.4544 174.353 74.1393 -177.992 -13.7074 38.6377 43.0631 -1.79311e-007 -1.07111e-006 -2.0042e-007 8.17099 4.50847 -25.425 -5.63414 4.31714 0.178496 14.4037 -5.94158 4.73511 -2.39365e-006 -1.39268e-007 2.30455e-006 
39.878 2.58073 6.40625 -180 -89.9981 -180 -0.07124 8.08715 -0.144446 -0.12352 16.1744 -0.282916 -0.12352 16.1744 -0.282915 -1.46845e-007 20.7101 -4.38273e-007 -6.55635e-008 7.14061 -8.55433e-009 -1.84538 2.89942 11.706 -75.5078 1.35585 29.9459 33.1603 7.86228 -76.7655 -7.02431 25.7494 -1.50716 -1.1835e-007 6.79931e-008 -8.48423e-007 2.32999e-006 -2.06591e-007 -5.99497e-007 9.93923e-016 -5.96354e-016 -1.59028e-015 -1.1835e-007 6.79931e-008 -8.48423e-007 -0.0146325 -8.75788e-005 1.06167e-005 -1.17084e-007 6.81091e-008 -8.48415e-007 -1.1835e-007 6.79931e-008 -8.48423e-007 -0.018778 -0.00117499 6.53364e-005 3.97569e-016 -2.98177e-015 1.59028e-015 -1.1835e-007 6.79931e-008 -8.48423e-007 -0.0122408 -0.00324246 0.000670433 2.5842e-015 1.63997e-015 1.27222e-014 -1.1835e-007 6.79931e-008 -8.48423e-007 2.32999e-006 -2.06591e-007 -5.99497e-007 9.93923e-016 -5.96354e-016 -1.59028e-015 5.20668 -1.53501 8.02 54.7043 28.678 24.9849 42.1806 -0.827609 56.1035 -25.9912 0.294224 -11.7253 -2.05655e-006 -1.60859e-006 -1.18089e-006 -2.20695e-031 3.97569e-015 3.18055e-015 3.18055e-015 -3.97569e-016 -3.18055e-015 -2.05655e-006 -1.60859e-006 -1.18089e-006 0.014996 -9.17881e-005 7.40913e-006 6.36111e-015 -9.14409e-015 -4.77083e-015 -2.05655e-006 -1.60859e-006 -1.18089e-006 0.019022 -0.00119594 -6.45648e-005 -9.54166e-015 -1.66979e-014 9.54166e-015 -2.05655e-006 -1.60859e-006 -1.18089e-006 0.0122898 -0.00325397 -0.0006789 6.36111e-015 7.95139e-016 3.18055e-015 -2.05655e-006 -1.60859e-006 -1.18089e-006 -2.20695e-031 3.97569e-015 3.18055e-015 3.18055e-015 -3.97569e-016 -3.18055e-015 -27.7388 -41.9904 9.10295 174.352 74.1401 -178.003 -15.053 38.4368 43.852 8.16444e-007 -3.37037e-006 3.00515e-007 8.17055 4.50776 -25.425 -5.63413 4.31866 0.178642 14.4038 -5.94228 4.73521 4.69819e-006 9.15802e-007 8.91017e-008 
